<mxfile>
    <diagram id="vEGB2YRBG0y0PXTZnp5H" name="Page-1">
        <mxGraphModel dx="1002" dy="463" grid="1" gridSize="10" guides="1" tooltips="1" connect="1" arrows="1" fold="1" page="1" pageScale="1" pageWidth="827" pageHeight="1169" background="#ffffff" math="0" shadow="0">
            <root>
                <mxCell id="0"/>
                <mxCell id="1" parent="0"/>
                <mxCell id="3" value="" style="ellipse;whiteSpace=wrap;html=1;aspect=fixed;" parent="1" vertex="1">
                    <mxGeometry x="360" y="40" width="30" height="30" as="geometry"/>
                </mxCell>
                <mxCell id="16" style="rounded=0;orthogonalLoop=1;jettySize=auto;html=1;exitX=0;exitY=1;exitDx=0;exitDy=0;entryX=0.5;entryY=0;entryDx=0;entryDy=0;endArrow=none;endFill=0;" parent="1" source="4" target="9" edge="1">
                    <mxGeometry relative="1" as="geometry"/>
                </mxCell>
                <mxCell id="17" style="edgeStyle=none;rounded=0;orthogonalLoop=1;jettySize=auto;html=1;exitX=1;exitY=1;exitDx=0;exitDy=0;entryX=0.5;entryY=0;entryDx=0;entryDy=0;endArrow=none;endFill=0;" parent="1" source="4" target="6" edge="1">
                    <mxGeometry relative="1" as="geometry"/>
                </mxCell>
                <mxCell id="4" value="" style="ellipse;whiteSpace=wrap;html=1;aspect=fixed;" parent="1" vertex="1">
                    <mxGeometry x="280" y="90" width="30" height="30" as="geometry"/>
                </mxCell>
                <mxCell id="18" style="edgeStyle=none;rounded=0;orthogonalLoop=1;jettySize=auto;html=1;exitX=0.5;exitY=1;exitDx=0;exitDy=0;entryX=0.5;entryY=0;entryDx=0;entryDy=0;endArrow=none;endFill=0;" parent="1" source="5" target="7" edge="1">
                    <mxGeometry relative="1" as="geometry"/>
                </mxCell>
                <mxCell id="19" style="edgeStyle=none;rounded=0;orthogonalLoop=1;jettySize=auto;html=1;exitX=1;exitY=1;exitDx=0;exitDy=0;entryX=0;entryY=0;entryDx=0;entryDy=0;endArrow=none;endFill=0;" parent="1" source="5" target="8" edge="1">
                    <mxGeometry relative="1" as="geometry"/>
                </mxCell>
                <mxCell id="5" value="" style="ellipse;whiteSpace=wrap;html=1;aspect=fixed;" parent="1" vertex="1">
                    <mxGeometry x="440" y="90" width="30" height="30" as="geometry"/>
                </mxCell>
                <mxCell id="6" value="11" style="ellipse;whiteSpace=wrap;html=1;aspect=fixed;" parent="1" vertex="1">
                    <mxGeometry x="310" y="160" width="30" height="30" as="geometry"/>
                </mxCell>
                <mxCell id="7" value="15" style="ellipse;whiteSpace=wrap;html=1;aspect=fixed;" parent="1" vertex="1">
                    <mxGeometry x="430" y="160" width="30" height="30" as="geometry"/>
                </mxCell>
                <mxCell id="8" value="20" style="ellipse;whiteSpace=wrap;html=1;aspect=fixed;" parent="1" vertex="1">
                    <mxGeometry x="550" y="160" width="30" height="30" as="geometry"/>
                </mxCell>
                <mxCell id="9" value="10" style="ellipse;whiteSpace=wrap;html=1;aspect=fixed;" parent="1" vertex="1">
                    <mxGeometry x="190" y="160" width="30" height="30" as="geometry"/>
                </mxCell>
                <mxCell id="14" value="" style="endArrow=none;html=1;exitX=0.5;exitY=0;exitDx=0;exitDy=0;" parent="1" source="4" edge="1">
                    <mxGeometry width="50" height="50" relative="1" as="geometry">
                        <mxPoint x="310" y="90" as="sourcePoint"/>
                        <mxPoint x="360" y="60" as="targetPoint"/>
                    </mxGeometry>
                </mxCell>
                <mxCell id="15" value="" style="endArrow=none;html=1;entryX=1;entryY=0.5;entryDx=0;entryDy=0;exitX=0.5;exitY=0;exitDx=0;exitDy=0;" parent="1" source="5" target="3" edge="1">
                    <mxGeometry width="50" height="50" relative="1" as="geometry">
                        <mxPoint x="305" y="90" as="sourcePoint"/>
                        <mxPoint x="369.9999999999999" y="70" as="targetPoint"/>
                    </mxGeometry>
                </mxCell>
                <mxCell id="26" value="" style="endArrow=classic;startArrow=classic;html=1;fillColor=#f8cecc;strokeColor=#b85450;strokeWidth=3;fontColor=#000000;" parent="1" edge="1">
                    <mxGeometry width="50" height="50" relative="1" as="geometry">
                        <mxPoint x="130" y="230" as="sourcePoint"/>
                        <mxPoint x="210" y="229.5" as="targetPoint"/>
                    </mxGeometry>
                </mxCell>
                <mxCell id="29" value="( - INF, 10 ]" style="text;html=1;align=center;verticalAlign=middle;resizable=0;points=[];autosize=1;fontColor=#000000;" parent="1" vertex="1">
                    <mxGeometry x="125" y="200" width="80" height="20" as="geometry"/>
                </mxCell>
                <mxCell id="31" value="パターン1" style="text;html=1;align=center;verticalAlign=middle;resizable=0;points=[];autosize=1;fontColor=#000000;" parent="1" vertex="1">
                    <mxGeometry x="50" y="220" width="70" height="20" as="geometry"/>
                </mxCell>
                <mxCell id="32" value="パターン2" style="text;html=1;align=center;verticalAlign=middle;resizable=0;points=[];autosize=1;fontColor=#000000;" parent="1" vertex="1">
                    <mxGeometry x="50" y="260" width="70" height="20" as="geometry"/>
                </mxCell>
                <mxCell id="33" value="パターン3" style="text;html=1;align=center;verticalAlign=middle;resizable=0;points=[];autosize=1;fontColor=#000000;" parent="1" vertex="1">
                    <mxGeometry x="50" y="300" width="70" height="20" as="geometry"/>
                </mxCell>
                <mxCell id="34" value="パターン4" style="text;html=1;align=center;verticalAlign=middle;resizable=0;points=[];autosize=1;fontColor=#000000;" parent="1" vertex="1">
                    <mxGeometry x="50" y="340" width="70" height="20" as="geometry"/>
                </mxCell>
                <mxCell id="35" value="パターン5" style="text;html=1;align=center;verticalAlign=middle;resizable=0;points=[];autosize=1;fontColor=#000000;" parent="1" vertex="1">
                    <mxGeometry x="50" y="380" width="70" height="20" as="geometry"/>
                </mxCell>
                <mxCell id="36" value="" style="endArrow=classic;startArrow=classic;html=1;fillColor=#f8cecc;strokeColor=#b85450;strokeWidth=3;fontColor=#000000;" parent="1" edge="1">
                    <mxGeometry width="50" height="50" relative="1" as="geometry">
                        <mxPoint x="200" y="270" as="sourcePoint"/>
                        <mxPoint x="330" y="270" as="targetPoint"/>
                    </mxGeometry>
                </mxCell>
                <mxCell id="37" value="" style="endArrow=classic;startArrow=classic;html=1;fillColor=#f8cecc;strokeColor=#b85450;strokeWidth=3;fontColor=#000000;" parent="1" edge="1">
                    <mxGeometry width="50" height="50" relative="1" as="geometry">
                        <mxPoint x="310" y="309.5" as="sourcePoint"/>
                        <mxPoint x="440" y="309.5" as="targetPoint"/>
                    </mxGeometry>
                </mxCell>
                <mxCell id="38" value="" style="endArrow=classic;startArrow=classic;html=1;fillColor=#f8cecc;strokeColor=#b85450;strokeWidth=3;fontColor=#000000;" parent="1" edge="1">
                    <mxGeometry width="50" height="50" relative="1" as="geometry">
                        <mxPoint x="440" y="349.5" as="sourcePoint"/>
                        <mxPoint x="570" y="349.5" as="targetPoint"/>
                    </mxGeometry>
                </mxCell>
                <mxCell id="39" value="" style="endArrow=classic;startArrow=classic;html=1;fillColor=#f8cecc;strokeColor=#b85450;strokeWidth=3;fontColor=#000000;" parent="1" edge="1">
                    <mxGeometry width="50" height="50" relative="1" as="geometry">
                        <mxPoint x="560" y="389.5" as="sourcePoint"/>
                        <mxPoint x="640" y="390" as="targetPoint"/>
                    </mxGeometry>
                </mxCell>
                <mxCell id="40" value="( 10, 11 ]" style="text;html=1;align=center;verticalAlign=middle;resizable=0;points=[];autosize=1;fontColor=#000000;" parent="1" vertex="1">
                    <mxGeometry x="235" y="240" width="60" height="20" as="geometry"/>
                </mxCell>
                <mxCell id="41" value="( 11, 15 ]" style="text;html=1;align=center;verticalAlign=middle;resizable=0;points=[];autosize=1;fontColor=#000000;" parent="1" vertex="1">
                    <mxGeometry x="345" y="280" width="60" height="20" as="geometry"/>
                </mxCell>
                <mxCell id="42" value="( 15, 20 ]" style="text;html=1;align=center;verticalAlign=middle;resizable=0;points=[];autosize=1;fontColor=#000000;" parent="1" vertex="1">
                    <mxGeometry x="470" y="320" width="60" height="20" as="geometry"/>
                </mxCell>
                <mxCell id="43" value="( 20, + INF )" style="text;html=1;align=center;verticalAlign=middle;resizable=0;points=[];autosize=1;fontColor=#000000;" parent="1" vertex="1">
                    <mxGeometry x="561" y="360" width="80" height="20" as="geometry"/>
                </mxCell>
                <mxCell id="44" value="閉区間と開区間&lt;br&gt;の違いに留意" style="rounded=1;whiteSpace=wrap;html=1;fontColor=#000000;" parent="1" vertex="1">
                    <mxGeometry x="150" y="320" width="120" height="60" as="geometry"/>
                </mxCell>
            </root>
        </mxGraphModel>
    </diagram>
</mxfile>